<?xml version="1.0" encoding="UTF-8"?>
<svg version="1.1" xmlns="http://www.w3.org/2000/svg" width="60" height="58">
<path d="M0 0 C5.10277059 2.71471901 8.53837714 6.79070062 11.14453125 11.87890625 C11.87582953 14.47169107 11.98521176 16.63574741 11.83203125 19.31640625 C13.81203125 19.31640625 15.79203125 19.31640625 17.83203125 19.31640625 C18.52004766 25.78376052 16.75529429 30.14483225 12.83203125 35.31640625 C5.87055842 41.80384883 -0.04375255 42.77701367 -9.421875 42.59375 C-15.78323552 42.12278379 -19.80894438 40.08743335 -24.04296875 35.37890625 C-28.73000388 28.6240615 -28.93786912 22.36625065 -28.16796875 14.31640625 C-26.48512474 8.08887573 -22.45374808 3.86069912 -17.16796875 0.31640625 C-11.82064319 -1.4660356 -5.4141374 -1.70716044 0 0 Z M-18.16796875 11.31640625 C-21.08600168 15.69345565 -21.80845184 19.10104396 -21.16796875 24.31640625 C-19.79903204 27.88594552 -17.93213087 30.64214556 -15.04296875 33.19140625 C-10.10959733 35.12185594 -5.06975294 36.15469946 0.1171875 34.65625 C4.37691729 32.6896084 7.39334125 30.41340545 9.83203125 26.31640625 C10.62893963 23.12878516 10.62893963 23.12878516 10.83203125 20.31640625 C9.51203125 20.31640625 8.19203125 20.31640625 6.83203125 20.31640625 C6.44015625 21.57453125 6.04828125 22.83265625 5.64453125 24.12890625 C4.58372061 26.87825494 3.91897304 28.23209906 1.76953125 30.31640625 C-2.57841244 31.79655729 -6.62769067 32.00974921 -11.16796875 31.31640625 C-14.1022007 29.51993771 -15.6400223 28.37229915 -17.16796875 25.31640625 C-17.37109375 23.07421875 -17.37109375 23.07421875 -17.41796875 20.44140625 C-17.44375 19.57773437 -17.46953125 18.7140625 -17.49609375 17.82421875 C-17.09836705 14.78445037 -16.31843089 13.48146429 -14.16796875 11.31640625 C-9.83132052 10.26721716 -7.463506 9.83762074 -3.29296875 11.37890625 C-0.64599984 13.79231908 -0.00848246 15.87794106 0.83203125 19.31640625 C2.15203125 19.31640625 3.47203125 19.31640625 4.83203125 19.31640625 C4.55201987 15.3029098 4.07439336 13.59605483 1.39453125 10.50390625 C-2.47568928 7.20005946 -4.88939911 6.96731923 -9.84765625 7.0390625 C-13.48951226 7.47436852 -15.48056409 8.88494489 -18.16796875 11.31640625 Z M-10.16796875 17.31640625 C-11.03155498 19.09782372 -11.03155498 19.09782372 -11.16796875 21.31640625 C-9.64778627 23.75336099 -9.64778627 23.75336099 -7.16796875 25.31640625 C-4.51669406 25.48618119 -4.51669406 25.48618119 -2.16796875 24.31640625 C-0.80776724 22.34882352 -0.80776724 22.34882352 -0.16796875 20.31640625 C-0.97234375 20.19265625 -1.77671875 20.06890625 -2.60546875 19.94140625 C-3.45109375 19.73515625 -4.29671875 19.52890625 -5.16796875 19.31640625 C-5.49796875 18.65640625 -5.82796875 17.99640625 -6.16796875 17.31640625 C-7.48796875 17.31640625 -8.80796875 17.31640625 -10.16796875 17.31640625 Z " fill="#F6ED33" transform="translate(33.16796875,8.68359375)"/>
</svg>
